<?xml version="1.0" encoding="UTF-8" standalone="no"?>
<svg
   xmlns:dc="http://purl.org/dc/elements/1.1/"
   xmlns:cc="http://creativecommons.org/ns#"
   xmlns:rdf="http://www.w3.org/1999/02/22-rdf-syntax-ns#"
   xmlns:svg="http://www.w3.org/2000/svg"
   xmlns="http://www.w3.org/2000/svg"
   xmlns:sodipodi="http://sodipodi.sourceforge.net/DTD/sodipodi-0.dtd"
   xmlns:inkscape="http://www.inkscape.org/namespaces/inkscape"
   width="5.33333in"
   height="2.33333in"
   viewBox="0 0 1600 700"
   id="svg2"
   version="1.1"
   inkscape:version="0.48.4 r9939"
   sodipodi:docname="shamra-part1.svg">
  <metadata
     id="metadata9">
    <rdf:RDF>
      <cc:Work
         rdf:about="">
        <dc:format>image/svg+xml</dc:format>
        <dc:type
           rdf:resource="http://purl.org/dc/dcmitype/StillImage" />
        <dc:title></dc:title>
      </cc:Work>
    </rdf:RDF>
  </metadata>
  <defs
     id="defs7" />
  <sodipodi:namedview
     pagecolor="#ffffff"
     bordercolor="#666666"
     borderopacity="1"
     objecttolerance="10"
     gridtolerance="10"
     guidetolerance="10"
     inkscape:pageopacity="0"
     inkscape:pageshadow="2"
     inkscape:window-width="1309"
     inkscape:window-height="744"
     id="namedview5"
     showgrid="false"
     inkscape:zoom="0.33958353"
     inkscape:cx="-7.2893871"
     inkscape:cy="-60.918797"
     inkscape:window-x="57"
     inkscape:window-y="24"
     inkscape:window-maximized="1"
     inkscape:current-layer="svg2" />
  <path
     id="Selection"
     fill="none"
     stroke="black"
     stroke-width="1"
     d="M 121.00,18.00            C 121.00,18.00 121.00,236.00 121.00,236.00              121.00,236.00 120.00,251.00 120.00,251.00              120.00,251.00 120.00,439.00 120.00,439.00              120.00,439.00 34.00,439.00 34.00,439.00              34.00,439.00 34.00,18.00 34.00,18.00              34.00,18.00 121.00,18.00 121.00,18.00 Z            M 1349.00,25.22            C 1365.60,24.97 1380.91,24.91 1392.67,39.00              1405.94,54.90 1406.37,90.75 1393.61,107.00              1386.88,115.58 1377.58,119.88 1367.00,121.56              1350.17,124.24 1327.26,122.78 1315.33,108.96              1300.88,92.24 1301.25,53.33 1316.30,37.09              1322.97,29.90 1331.69,27.16 1341.00,25.22              1341.00,25.22 1349.00,25.22 1349.00,25.22 Z            M 534.29,313.00            C 540.91,289.95 549.25,268.87 561.15,248.00              584.00,207.94 614.64,174.40 653.00,148.67              690.47,123.54 734.19,107.20 779.00,101.85              779.00,101.85 800.00,100.00 800.00,100.00              800.00,100.00 834.00,100.00 834.00,100.00              834.00,100.00 844.00,100.92 844.00,100.92              875.24,103.42 908.53,112.24 937.00,125.31              1014.28,160.79 1070.75,224.84 1095.98,306.00              1101.05,322.33 1105.13,341.98 1106.83,359.00              1106.83,359.00 1109.00,386.00 1109.00,386.00              1109.00,386.00 1112.00,351.00 1112.00,351.00              1112.00,351.00 1214.00,351.00 1214.00,351.00              1225.66,350.98 1235.54,347.77 1242.70,337.99              1247.79,331.03 1249.16,323.31 1250.15,315.00              1250.15,315.00 1251.00,267.00 1251.00,267.00              1251.00,267.00 1338.00,267.00 1338.00,267.00              1338.00,284.34 1336.64,316.41 1340.01,332.00              1341.47,338.69 1346.70,352.47 1355.96,348.39              1365.97,343.97 1367.98,320.68 1368.00,311.00              1368.00,311.00 1368.00,237.00 1368.00,237.00              1368.00,237.00 1455.00,237.00 1455.00,237.00              1455.00,237.00 1455.00,312.00 1455.00,312.00              1455.01,319.83 1456.52,333.00 1459.91,340.00              1461.59,343.46 1465.08,347.97 1469.00,348.92              1474.38,350.24 1478.73,344.21 1480.65,340.00              1484.38,331.83 1485.99,312.24 1486.00,303.00              1486.00,303.00 1486.00,197.00 1486.00,197.00              1486.00,197.00 1572.00,197.00 1572.00,197.00              1572.00,197.00 1572.00,290.00 1572.00,290.00              1572.00,328.56 1571.73,366.47 1547.52,399.00              1542.48,405.77 1532.67,416.05 1526.00,421.10              1502.46,438.93 1480.88,439.00 1453.00,439.00              1453.00,439.00 1415.00,439.00 1415.00,439.00              1415.00,439.00 1114.00,439.00 1114.00,439.00              1111.02,439.01 1107.08,438.52 1105.17,441.31              1105.17,441.31 1101.00,459.00 1101.00,459.00              1098.67,469.87 1095.30,480.50 1091.66,491.00              1074.11,541.54 1040.65,587.44 999.00,620.80              960.50,651.64 912.83,673.19 864.00,680.73              840.27,684.39 821.80,684.27 798.00,684.00              798.00,684.00 779.00,682.15 779.00,682.15              739.49,677.43 700.13,664.03 666.00,643.55              633.43,624.01 605.71,599.19 582.65,569.00              559.44,538.61 541.65,501.11 532.37,464.00              532.37,464.00 526.28,432.00 526.28,432.00              526.28,432.00 524.00,414.00 524.00,414.00              524.00,414.00 522.00,439.00 522.00,439.00              522.00,439.00 398.00,439.00 398.00,439.00              373.81,439.00 349.06,440.13 325.00,437.83              325.00,437.83 302.00,434.00 302.00,434.00              301.19,443.65 295.54,460.67 292.05,470.00              286.69,484.32 280.78,495.47 271.96,508.00              246.95,543.57 208.81,561.21 167.00,568.08              158.96,569.40 147.02,570.99 139.00,571.00              139.00,571.00 120.00,571.00 120.00,571.00              120.00,571.00 120.00,486.00 120.00,486.00              150.11,483.56 183.53,475.09 201.96,449.00              215.76,429.46 217.03,405.07 218.04,382.00              218.04,382.00 219.00,371.00 219.00,371.00              219.00,371.00 219.00,240.00 219.00,240.00              219.00,240.00 218.00,225.00 218.00,225.00              218.00,225.00 218.00,197.00 218.00,197.00              218.00,197.00 308.00,197.00 308.00,197.00              308.00,197.00 308.00,248.00 308.00,248.00              308.00,248.00 309.00,265.00 309.00,265.00              309.00,265.00 309.00,310.00 309.00,310.00              309.02,324.95 313.76,342.40 329.00,348.52              334.15,350.59 339.52,350.99 345.00,351.00              345.00,351.00 527.00,351.00 527.00,351.00              527.09,340.85 531.41,323.03 534.29,313.00 Z            M 1339.96,129.33            C 1356.27,143.42 1357.77,179.20 1347.47,197.00              1345.41,200.56 1342.16,204.06 1339.00,206.67              1326.63,216.93 1311.99,216.17 1297.00,216.00              1292.38,215.94 1288.43,215.31 1284.00,213.96              1265.32,208.26 1256.09,192.94 1256.00,174.00              1256.00,174.00 1256.00,161.00 1256.00,161.00              1256.12,150.81 1259.54,139.78 1266.32,132.04              1273.11,124.28 1283.23,121.24 1293.00,119.44              1307.85,117.54 1328.21,119.17 1339.96,129.33 Z            M 1438.91,129.47            C 1452.28,141.16 1452.03,156.91 1452.00,173.00              1451.98,185.34 1448.43,197.33 1438.99,205.82              1426.65,216.91 1411.37,216.18 1396.00,216.00              1391.38,215.94 1387.43,215.31 1383.00,213.96              1357.06,206.04 1354.73,185.12 1355.00,162.00              1355.12,151.85 1358.71,139.81 1365.47,132.09              1372.75,123.77 1382.60,121.13 1393.00,119.43              1407.86,117.59 1427.21,119.23 1438.91,129.47 Z            M 771.00,192.42            C 729.46,201.60 691.61,224.51 663.17,256.00              607.11,318.07 596.09,411.99 634.26,486.00              654.66,525.57 688.79,558.22 729.00,577.22              753.12,588.61 780.29,595.69 807.00,596.00              807.00,596.00 816.00,596.66 816.00,596.66              816.00,596.66 825.00,596.00 825.00,596.00              825.00,596.00 830.00,596.00 830.00,596.00              845.25,595.82 867.46,590.53 882.00,585.67              935.73,567.69 981.25,526.17 1003.57,474.00              1012.13,454.01 1017.77,432.66 1019.96,411.00              1019.96,411.00 1019.96,402.00 1019.96,402.00              1019.96,402.00 1020.98,393.00 1020.98,393.00              1020.98,393.00 1019.96,382.00 1019.96,382.00              1019.96,382.00 1019.96,373.00 1019.96,373.00              1018.14,355.31 1014.06,337.68 1007.95,321.00              985.71,260.34 935.79,214.14 874.00,195.72              862.54,192.31 840.78,188.06 829.00,187.78              829.00,187.78 816.00,187.78 816.00,187.78              798.38,188.46 788.75,188.50 771.00,192.42 Z"
     style="fill:#00a550;fill-opacity:1;stroke:none" />
  <path
     d="m 948.90721,268.20759 c 12.47,13.78 22.11,27.38 30.42,44 10.34,20.68 18.71,47.72 18.75,71 0,0 0,26 0,26 -0.31,26.39 -12.13,59.66 -25.81,82 -7.32,11.94 -16.42,23.98 -26.2,34 -2.25,2.3 -7.97,8.67 -10.99,9.1 -2.54,0.36 -5.18,-1.89 -7,-3.4 0,0 -15.98,-13.87 -15.98,-13.87 -1.82,-1.73 -4.39,-4.02 -3.68,-6.83 0.53,-2.15 4.06,-5.35 5.62,-7 0,0 9.58,-11 9.58,-11 10.55,-13 18.22,-25.54 24.6,-41 16.46,-39.93 13.96,-90.37 -7.57,-128 -5.45,-9.52 -11.59,-18.63 -18.7,-27 0,0 -13.13,-15 -13.13,-15 -1.77,-3.71 1.76,-6.47 4.26,-8.72 4.53,-4.06 15.19,-13.78 20,-16.2 5.97,-0.3 11.99,7.68 15.83,11.92 z"
     id="Selection #1"
     inkscape:connector-curvature="0"
     style="fill:#00a650;fill-opacity:0.74901961;stroke:none" />
  <path
     d="m 1146.4632,505.7071 c 4.52,-1.3 9.85,-6.66 5.55,-11.15 -2.84,-2.97 -7.79,-2.39 -11.55,-2.43 -8.71,-0.11 -19.29,-1.26 -22.35,-11 -0.66,-2.09 -0.68,-4.81 -0.63,-7 0.06,-2.95 0.29,-5.3 1.67,-7.99 5.26,-10.26 23.25,-11.03 33.31,-9.58 2.71,0.39 9.33,1.13 11.01,3.29 1.42,1.83 0.99,7.87 0.99,10.28 -7.07,-2.3 -17.69,-4.76 -25,-3.18 -3.53,0.76 -8.03,2.33 -9.16,6.22 -2.14,7.44 7.52,7.95 12.16,7.96 11.07,0.02 22.9,0.76 23.9,15 1.22,17.26 -13.83,21.3 -27.9,20.99 -3.52,-0.08 -15.96,-1.08 -18.01,-3.71 -1.42,-1.83 -0.99,-7.87 -0.99,-10.28 8,1.81 18.78,4.94 27,2.58 z m 36,-49.58 c 0,0 0,25 0,25 0,0 29,0 29,0 0,0 0,-25 0,-25 0,0 12,0 12,0 0,0 0,37 0,37 0,0 1,21 1,21 1.1,-5.85 4.69,-12.46 7.14,-18 0,0 11.72,-27 11.72,-27 4.14,-9.37 4.01,-12.85 12.14,-13 0,0 7,0 7,0 0,0 11.7,27 11.7,27 0,0 14.3,31 14.3,31 0,0 0,-58 0,-58 0,0 11.61,1.02 11.61,1.02 0,0 6.65,11.98 6.65,11.98 0,0 14.74,31 14.74,31 0,0 13.69,-31 13.69,-31 0,0 6.7,-11.98 6.7,-11.98 0,0 11.61,-1.02 11.61,-1.02 0,0 0,60 0,60 0,0 -12,0 -12,0 0,-8.28 0.89,-30.33 -1,-37 -1.16,6.4 -6.56,18.41 -9.2,25 -0.93,2.31 -3.29,8.9 -4.79,10.43 -1.7,1.72 -4.73,1.7 -6.99,1.51 -5.78,-0.48 -6.28,-5.25 -8.3,-9.94 0,0 -11.72,-28 -11.72,-28 0,0 0,38 0,38 0,0 -17,0 -17,0 -2.03,-0.01 -4.84,0.13 -6.59,-1.02 -3.31,-2.19 -4.52,-10.62 -7.82,-13.38 -3.03,-2.53 -15.28,-1.6 -19.59,-1.6 2.71,-11.53 5.69,-10 16,-10 0,0 -9,-20 -9,-20 0,0 -14.58,34 -14.58,34 -3.05,7.28 -2.77,11.84 -11.42,12 0,0 -18,0 -18,0 0,0 0,-25 0,-25 0,0 -29,0 -29,0 0,0 0,25 0,25 0,0 -12,0 -12,0 0,0 0,-60 0,-60 0,0 12,0 12,0 z m 215.98,3.01 c 11.36,6.97 9.25,25.81 -6.98,30.99 0,0 15,20 15,20 0,0 16.58,-38 16.58,-38 0,0 7.81,-14.98 7.81,-14.98 0,0 12.61,-1.02 12.61,-1.02 0,0 11.7,27 11.7,27 0,0 13.3,29 13.3,29 0,0 0,-7 0,-7 0,0 12,0 12,0 0,0 0,11 0,11 0,0 -17,0 -17,0 -2.03,-0.01 -4.84,0.13 -6.59,-1.02 -3.31,-2.19 -4.52,-10.62 -7.82,-13.38 -3.03,-2.53 -15.28,-1.6 -19.59,-1.6 2.71,-11.53 5.69,-10 16,-10 0,0 -9,-20 -9,-20 0,0 -10.28,24 -10.28,24 -1.71,3.96 -7.29,19.16 -10.11,20.98 -1.62,1.04 -3.76,0.98 -5.61,1.02 -2.86,0.05 -12.68,0.29 -14.82,-0.6 -2.53,-1.06 -4.47,-4.22 -6.04,-6.4 -2.9,-4.02 -12.29,-15.85 -12.81,-19.96 -0.61,-4.74 3.42,-4.79 6.67,-6.17 3.5,-1.49 8.01,-4.82 8.58,-8.87 0.86,-6.07 -5.15,-6.94 -9.58,-7 0,0 -12,0 -12,0 0,0 0,49 0,49 0,0 -12,0 -12,0 0,0 0,-60 0,-60 8.94,0 33.16,-1.18 39.98,3.01 z m 114.98,45.98 c 7.44,-3.19 8.32,-12.76 -3.96,-12.99 -5.61,-0.1 -13.89,-0.09 -19,-2.57 -8.36,-4.06 -10.05,-15.69 -6,-23.39 5.4,-10.28 22.85,-11 33,-9.75 2.74,0.33 9.32,1.03 10.98,3.27 1.42,1.93 1.02,7.93 1.02,10.44 -7.79,-2.55 -19.01,-5.4 -27,-2.66 -4.32,1.48 -10.01,6.67 -5.55,11.15 3.06,3.08 9.5,2.5 13.55,2.51 7.81,0.01 16.23,0.75 19.77,9.01 0.86,2.01 1.09,3.84 1.19,5.99 0.82,18.29 -13.87,21.62 -28.96,20.96 -3.23,-0.14 -15.15,-1.36 -17.01,-3.69 -1.06,-1.34 -0.96,-3.65 -0.99,-5.27 0,0 0,-5 0,-5 7.82,1.76 21.28,5.29 28.96,1.99 z m 28.83,-47.97 c 0,0 6.61,8.98 6.61,8.98 0,0 11.6,18 11.6,18 0,0 9.85,-19 9.85,-19 0,0 5.54,-7.98 5.54,-7.98 0,0 11.61,-1.02 11.61,-1.02 0,0 -21.01,39 -21.01,39 0,0 -0.99,21 -0.99,21 0,0 -12,0 -12,0 0,0 0,-14 0,-14 -0.12,-8.18 -3.43,-11.3 -7.58,-18 0,0 -16.42,-28 -16.42,-28 0,0 12.79,1.02 12.79,1.02 z"
     id="Selection #2"
     inkscape:connector-curvature="0"
     style="fill:#676767;stroke:none;stroke-width:1;fill-opacity:1" />
</svg>
